<?xml version="1.0" standalone="no"?>
<!DOCTYPE svg PUBLIC "-//W3C//DTD SVG 20010904//EN"
 "http://www.w3.org/TR/2001/REC-SVG-20010904/DTD/svg10.dtd">
<svg version="1.0" xmlns="http://www.w3.org/2000/svg"
 width="200.000000pt" height="200.000000pt" viewBox="0 0 200.000000 200.000000"
 preserveAspectRatio="xMidYMid meet">
<metadata>
Created by potrace 1.14, written by Peter Selinger 2001-2017
</metadata>
<g transform="translate(0.000000,200.000000) scale(0.100000,-0.100000)"
fill="#000000" stroke="none">
<path d="M960 1590 c-22 -22 -24 -29 -11 -49 6 -9 -2 -39 -26 -90 -19 -42 -42
-92 -51 -113 -13 -28 -23 -37 -49 -41 -33 -6 -42 -2 -245 90 -36 16 -58 33
-58 43 0 23 -29 60 -54 69 -58 22 -121 -50 -94 -107 18 -36 57 -49 105 -33 36
12 43 10 158 -42 118 -53 120 -54 122 -88 0 -19 3 -39 5 -45 1 -6 -29 -43 -69
-83 -62 -64 -73 -71 -91 -62 -44 23 -102 11 -149 -32 l-22 -20 -96 44 c-82 37
-99 48 -110 76 -22 52 -89 58 -115 9 -29 -55 22 -111 81 -89 27 10 39 7 112
-26 45 -21 90 -41 100 -44 9 -4 17 -17 17 -29 0 -13 9 -40 19 -60 l20 -36 -52
-75 c-32 -46 -62 -78 -79 -85 -22 -8 -28 -17 -28 -41 0 -39 31 -58 66 -42 18
8 24 19 24 42 0 21 17 55 52 106 51 73 52 74 86 68 24 -4 48 -1 74 11 l38 17
57 -40 c42 -30 58 -48 59 -65 1 -58 22 -82 79 -92 22 -4 35 2 64 31 29 29 57
42 166 75 l131 40 38 -26 c42 -28 61 -31 100 -16 23 8 32 3 91 -52 36 -33 63
-63 61 -66 -10 -9 15 -43 37 -51 13 -5 32 -4 44 2 62 28 22 115 -47 104 -9 -1
-41 20 -72 47 l-56 49 5 51 c4 44 2 54 -19 76 -13 14 -32 30 -42 35 -15 9 -17
28 -18 155 0 80 0 150 1 156 3 30 39 18 148 -46 l118 -69 99 -140 c54 -76 99
-143 98 -148 -2 -40 50 -57 69 -22 9 18 6 25 -23 52 -19 18 -71 85 -117 150
l-84 119 30 26 c102 93 137 117 169 117 64 1 96 63 54 105 -39 39 -101 12
-104 -44 -1 -17 -27 -46 -91 -100 l-89 -75 -31 18 c-189 113 -204 123 -199
136 4 8 -7 28 -24 44 -26 26 -34 29 -60 22 -28 -8 -38 -3 -136 75 -59 47 -104
90 -100 95 8 14 -25 49 -48 49 -10 0 -27 -9 -38 -20z m168 -162 c85 -68 102
-86 102 -109 0 -18 9 -35 25 -47 l26 -20 -3 -158 c-2 -102 -7 -159 -14 -161
-18 -6 -338 275 -346 303 -4 14 -11 31 -17 38 -14 16 87 235 109 235 8 1 61
-36 118 -81z m-141 -324 c32 -28 96 -84 143 -125 l85 -74 -14 -41 -15 -42
-130 -40 -130 -39 -27 28 c-28 30 -65 37 -97 20 -13 -7 -32 2 -77 34 -60 43
-60 44 -57 88 2 25 -1 54 -7 65 -9 18 -2 29 61 91 65 64 75 71 105 67 22 -2
42 3 56 14 26 21 28 20 104 -46z"/>
<path d="M1265 640 c-11 -17 -83 -50 -109 -50 -20 0 -27 -6 -32 -27 -9 -44
-26 -87 -41 -104 -17 -21 -17 -44 2 -59 8 -7 15 -16 15 -21 0 -4 5 -20 11 -36
7 -15 13 -36 14 -45 2 -23 11 -31 33 -33 31 -3 90 -26 102 -41 15 -17 34 -18
52 -2 18 18 89 50 96 44 11 -12 42 17 42 39 0 30 19 75 41 97 17 17 16 58 -2
58 -12 0 -42 71 -40 93 3 25 -17 46 -40 42 -24 -5 -81 18 -99 39 -14 18 -36
21 -45 6z m35 -25 c0 -8 -7 -15 -15 -15 -8 0 -15 7 -15 15 0 8 7 15 15 15 8 0
15 -7 15 -15z m-34 -31 c7 -6 14 -24 16 -40 2 -20 10 -30 27 -34 13 -3 34 -22
47 -41 l22 -36 -21 -41 c-20 -41 -22 -42 -71 -42 -49 0 -52 2 -74 40 -14 25
-32 42 -50 47 -44 11 -52 24 -36 63 8 18 17 30 20 27 11 -11 44 13 44 32 0 10
10 23 23 28 26 13 37 12 53 -3z m89 4 c14 -6 25 -19 25 -29 0 -19 33 -43 44
-32 3 3 12 -9 20 -28 13 -30 13 -36 -1 -51 -25 -28 -38 -22 -73 32 -23 36 -39
50 -55 50 -19 0 -21 4 -17 28 3 15 10 30 16 34 14 10 11 10 41 -4z m70 -38
c-5 -8 -11 -8 -17 -2 -6 6 -7 16 -3 22 5 8 11 8 17 2 6 -6 7 -16 3 -22z m-257
9 c-2 -6 -8 -10 -13 -10 -5 0 -11 4 -13 10 -2 6 4 11 13 11 9 0 15 -5 13 -11z
m-54 -140 c-10 -16 -24 -9 -24 12 0 18 2 19 15 9 8 -7 12 -16 9 -21z m372 2
c-4 -5 -13 -8 -22 -4 -11 4 -12 8 -3 20 14 16 36 2 25 -16z m-288 -46 c21 -35
33 -44 55 -45 22 0 27 -5 27 -24 0 -54 -77 -60 -90 -6 -3 14 -15 26 -29 30
-31 7 -52 48 -37 72 19 30 45 21 74 -27z m251 30 c12 -12 -15 -79 -28 -71 -12
8 -41 -21 -41 -40 0 -22 -43 -38 -67 -25 -28 14 -20 61 11 61 15 0 28 13 44
43 18 34 28 44 47 43 14 -1 29 -6 34 -11z m-20 -111 c-14 -17 -30 -9 -23 11 3
7 12 11 20 8 11 -4 12 -9 3 -19z m-259 0 c0 -9 -5 -14 -12 -12 -18 6 -21 28
-4 28 9 0 16 -7 16 -16z m135 -44 c3 -6 -1 -13 -10 -16 -19 -8 -30 0 -20 15 8
14 22 14 30 1z"/>
<path d="M1250 520 c0 -5 5 -10 11 -10 5 0 7 5 4 10 -3 6 -8 10 -11 10 -2 0
-4 -4 -4 -10z"/>
<path d="M1320 470 c0 -5 5 -10 11 -10 5 0 7 5 4 10 -3 6 -8 10 -11 10 -2 0
-4 -4 -4 -10z"/>
<path d="M1260 455 c-15 -18 -10 -45 12 -59 26 -16 53 14 44 48 -7 29 -36 35
-56 11z m44 -13 c8 -13 -11 -35 -23 -28 -16 10 -14 36 3 36 8 0 17 -4 20 -8z"/>
<path d="M1220 430 c0 -5 5 -10 11 -10 5 0 7 5 4 10 -3 6 -8 10 -11 10 -2 0
-4 -4 -4 -10z"/>
<path d="M1335 430 c-3 -5 -1 -10 4 -10 6 0 11 5 11 10 0 6 -2 10 -4 10 -3 0
-8 -4 -11 -10z"/>
<path d="M643 602 c-56 -30 -75 -74 -59 -134 10 -33 40 -54 108 -73 29 -8 63
-17 75 -20 27 -9 36 -40 15 -57 -21 -18 -111 -15 -149 5 l-32 17 -17 -31 c-8
-17 -12 -35 -7 -39 21 -20 105 -39 161 -36 100 6 152 57 143 142 -3 29 -46 58
-118 80 -89 27 -112 47 -86 76 20 22 80 24 129 3 l35 -14 11 32 c15 42 16 40
-28 54 -58 17 -144 15 -181 -5z"/>
<path d="M947 612 c-2 -4 -4 -89 -5 -189 l0 -181 44 -4 44 -3 0 190 0 190 -40
2 c-21 2 -41 -1 -43 -5z"/>
</g>
</svg>
